<svg xmlns="http://www.w3.org/2000/svg" viewBox="0 0 258.39 50.08"><defs><style>.cls-1{fill:#ffc300;}.cls-2{fill:#fff;}</style></defs><g id="Capa_2" data-name="Capa 2"><g id="Capa_1-2" data-name="Capa 1"><polygon class="cls-1" points="2.54 26.77 22.23 26.77 22.23 29.12 2.54 29.12 2.54 42.37 23.77 42.37 23.77 44.87 0 44.87 0 11.26 23.19 11.26 23.19 13.71 2.54 13.71 2.54 26.77"></polygon><path class="cls-1" d="M48.93,11.26V44.87h-2.3V39.64a11.17,11.17,0,0,1-9.9,5.61c-6.62,0-11.86-4.37-11.86-12.24s5.29-12.24,11.91-12.24c4.08,0,7.93,1.73,9.85,5.57V11.26ZM27.18,33c0,6.58,4.37,9.94,9.7,9.94,5.57,0,9.7-4.08,9.7-10A9.51,9.51,0,0,0,36.88,23c-5.33,0-9.7,3.32-9.7,10"></path><path class="cls-1" d="M71.41,44.87V40.6A9.44,9.44,0,0,1,63,45.25c-6.33,0-10.7-3.89-10.7-10.46V21.1H54.6V34.74c0,5.38,3.31,8.26,8.45,8.21,4.9-.05,8.31-3.75,8.31-8.64V21.1h2.35V44.87Z"></path><path class="cls-1" d="M96.47,41.56a12.13,12.13,0,0,1-8.64,3.55c-6.68,0-12.2-4.61-12.2-12.1s5.33-12.1,12.2-12.1a12.34,12.34,0,0,1,8.64,3.55L94.94,26a10.07,10.07,0,0,0-7.11-2.83c-5.38,0-9.89,3.51-9.89,9.89s4.51,9.89,9.89,9.89A10.06,10.06,0,0,0,94.89,40Z"></path><path class="cls-1" d="M121.2,21.15V44.87h-2.35v-5a11.09,11.09,0,0,1-9.7,5.42A11.86,11.86,0,0,1,97.1,33a11.78,11.78,0,0,1,12.05-12.15,10.77,10.77,0,0,1,9.7,5.48V21.15ZM99.45,33a9.53,9.53,0,0,0,9.7,9.94c13.2,0,13.2-19.83,0-19.83A9.49,9.49,0,0,0,99.45,33"></path><path class="cls-2" d="M149.46,44.63V25.35c0-4.75-2.48-9.06-7.38-9.06s-7.67,4.31-7.67,9.06V44.63H125.5V8.55h8.26l.65,4.38c1.9-3.65,6.07-5,9.5-5,4.31,0,8.62,1.75,10.66,6.72,3.22-5.12,7.38-6.58,12.05-6.58,10.23,0,15.27,6.28,15.27,17.09V44.63H173V25.2c0-4.74-2-8.76-6.79-8.76s-7.82,4.16-7.82,8.91V44.63Z"></path><path class="cls-2" d="M251.74,18.19A12.15,12.15,0,0,0,242.83,15c-4.24,0-6.57,1.31-6.57,3.58s2.11,3.65,6.71,3.94c6.8.44,15.42,2,15.42,11.54,0,6.35-5.19,11.83-15.49,11.83-5.7,0-11.39-.95-16.65-6.43l4.38-6.35c2.56,2.85,8.4,5,12.42,5,3.36.07,6.5-1.68,6.5-4.31,0-2.48-2.05-3.51-7.16-3.8-6.79-.51-14.9-3-14.9-11.17,0-8.33,8.62-11.25,15.19-11.25,5.63,0,9.86,1.1,14,4.75Z"></path><path class="cls-2" d="M214.64,39.4Z"></path><polygon class="cls-2" points="213.82 0 204.6 0 201.62 5.62 206.35 5.62 213.82 0"></polygon><path class="cls-1" d="M212.05,38.57c.84-1,5.84,9,5.84,9l3.83-1,2.7-7.17-2.37-7.83Z"></path><path class="cls-2" d="M224.38,10.37a5.39,5.39,0,0,0-9.71-.17.67.67,0,0,0,0,.1s0,0,0,.07h0v3.29l-.15.15C212.45,10.23,207.84,8,203,8c-10.53-.07-18.79,6.44-18.79,18.87,0,12.65,7.9,19.23,18.57,19.16,4-.08,9.66-2.12,11.7-6.36l.14-.27h0s0,0,0,0v0l.33-.63a5.32,5.32,0,0,1,4.52-2.42,5.26,5.26,0,0,1,4.93,3.1v-29ZM203.82,37.8c-5.93,0-10.68-4.1-10.68-11s4.75-10.9,10.68-10.9c14,0,14,21.87,0,21.87"></path><path class="cls-2" d="M217.25,46.27a17.07,17.07,0,0,0,2.32,3.81,13.71,13.71,0,0,0,2.24-3.64,3.92,3.92,0,0,0-4.56-.17"></path></g></g></svg>